<svg viewBox="0 0 170 33" xmlns="http://www.w3.org/2000/svg" xmlns:xlink="http://www.w3.org/1999/xlink"><style>:root&gt;svg{display:none}:root&gt;svg:target{display:block}</style><svg viewBox="0 0 20 20" id="icon-facebook" xmlns="http://www.w3.org/2000/svg"><path d="M18.896 0H1.104C.494 0 0 .494 0 1.104v17.793C0 19.506.494 20 1.104 20h9.58v-7.745H8.076V9.237h2.606V7.01c0-2.583 1.578-3.99 3.883-3.99 1.104 0 2.052.082 2.329.119v2.7h-1.598c-1.254 0-1.496.597-1.496 1.47v1.928h2.989l-.39 3.018h-2.6V20h5.098c.608 0 1.102-.494 1.102-1.104V1.104A1.102 1.102 0 0018.896 0z"/></svg><svg viewBox="0 0 20 20" id="icon-instagram" xmlns="http://www.w3.org/2000/svg"><path d="M10 1.802c2.67 0 2.987.01 4.042.059 2.71.123 3.975 1.409 4.099 4.099.048 1.054.057 1.37.057 4.04 0 2.672-.01 2.988-.057 4.042-.124 2.687-1.387 3.975-4.1 4.099-1.054.048-1.37.058-4.041.058-2.67 0-2.987-.01-4.04-.058-2.718-.124-3.977-1.416-4.1-4.1-.048-1.054-.058-1.37-.058-4.041 0-2.67.01-2.986.058-4.04.124-2.69 1.387-3.977 4.1-4.1 1.054-.048 1.37-.058 4.04-.058zM10 0C7.284 0 6.944.012 5.877.06 2.246.227.227 2.242.061 5.877.01 6.944 0 7.284 0 10s.012 3.057.06 4.123c.167 3.632 2.182 5.65 5.817 5.817 1.067.048 1.407.06 4.123.06s3.057-.012 4.123-.06c3.629-.167 5.652-2.182 5.816-5.817.05-1.066.061-1.407.061-4.123s-.012-3.056-.06-4.122C19.777 2.249 17.76.228 14.124.06 13.057.01 12.716 0 10 0zm0 4.865a5.135 5.135 0 100 10.27 5.135 5.135 0 000-10.27zm0 8.468a3.333 3.333 0 110-6.666 3.333 3.333 0 010 6.666zm5.338-9.87a1.2 1.2 0 100 2.4 1.2 1.2 0 000-2.4z"/></svg><svg viewBox="0 0 20 20" id="icon-pinterest" xmlns="http://www.w3.org/2000/svg"><path d="M10 0C4.477 0 0 4.477 0 10c0 4.237 2.636 7.855 6.356 9.312-.088-.791-.167-2.005.035-2.868.181-.78 1.172-4.97 1.172-4.97s-.299-.6-.299-1.486c0-1.39.806-2.428 1.81-2.428.852 0 1.264.64 1.264 1.408 0 .858-.546 2.14-.828 3.33-.236.995.5 1.807 1.48 1.807 1.778 0 3.144-1.874 3.144-4.58 0-2.393-1.72-4.068-4.176-4.068-2.845 0-4.516 2.135-4.516 4.34 0 .859.331 1.781.745 2.281a.3.3 0 01.069.288l-.278 1.133c-.044.183-.145.223-.335.134-1.249-.581-2.03-2.407-2.03-3.874 0-3.154 2.292-6.052 6.608-6.052 3.469 0 6.165 2.473 6.165 5.776 0 3.447-2.173 6.22-5.19 6.22-1.013 0-1.965-.525-2.291-1.148l-.623 2.378c-.226.869-.835 1.958-1.244 2.621.937.29 1.931.446 2.962.446 5.523 0 10-4.477 10-10S15.523 0 10 0z"/></svg><svg viewBox="0 0 20 17" id="icon-twitter" xmlns="http://www.w3.org/2000/svg"><path d="M20 2.172a8.192 8.192 0 01-2.357.646 4.11 4.11 0 001.805-2.27 8.22 8.22 0 01-2.606.996A4.096 4.096 0 0013.847.248c-2.65 0-4.596 2.472-3.998 5.037A11.648 11.648 0 011.392 1a4.109 4.109 0 001.27 5.478 4.086 4.086 0 01-1.858-.513c-.045 1.9 1.318 3.679 3.291 4.075a4.113 4.113 0 01-1.853.07 4.106 4.106 0 003.833 2.849A8.25 8.25 0 010 14.658a11.616 11.616 0 006.29 1.843c7.618 0 11.923-6.434 11.663-12.205A8.354 8.354 0 0020 2.172z"/></svg><svg viewBox="0 0 170 33" id="logo" xmlns="http://www.w3.org/2000/svg"><path fill-rule="evenodd" clip-rule="evenodd" d="M121.588 6.286c1.251 0 2.218-.296 2.901-.888.682-.593 1.023-1.344 1.023-2.255 0-.934-.33-1.691-.989-2.272-.66-.58-1.638-.871-2.935-.871-1.297 0-2.275.29-2.935.871-.659.58-.989 1.338-.989 2.272 0 .91.341 1.662 1.024 2.255.682.592 1.649.888 2.9.888zM13.65 24.238c-1.48.99-3.345 1.486-5.597 1.486-4.732 0-7.416-1.925-8.053-5.774l5.119-1.161c.318 1.457 1.296 2.186 2.934 2.186 1.115 0 1.672-.296 1.672-.888a.617.617 0 00-.222-.495c-.147-.126-.472-.28-.972-.462l-2.047-.751-.58-.205c-.41-.137-.734-.256-.973-.359a21.372 21.372 0 01-1.04-.495 5.214 5.214 0 01-1.127-.735 11.598 11.598 0 01-.921-.922 3.5 3.5 0 01-.717-1.23 4.68 4.68 0 01-.239-1.52c0-1.754.694-3.177 2.082-4.27 1.387-1.093 3.128-1.64 5.22-1.64 3.504 0 5.87 1.526 7.098 4.578l-5.084 1.434c-.455-.956-1.149-1.434-2.082-1.434-.75 0-1.126.284-1.126.854 0 .205.091.376.273.512.182.137.49.274.922.41l1.979.82c3.685 1.275 5.585 3.188 5.699 5.74 0 1.89-.74 3.33-2.219 4.32zm15.385-1.11c-1.07 1.73-2.73 2.596-4.983 2.596-4.163 0-6.244-2.608-6.244-7.823V7.379h7.03v9.838c0 2.027.704 3.04 2.115 3.04 1.388 0 2.082-1.013 2.082-3.04V7.38h7.029v17.969h-7.03v-2.22zm17.159 2.22v-9.839c0-2.027.694-3.04 2.081-3.04 1.41 0 2.116 1.013 2.116 3.04v9.839h7.03V14.826c0-5.215-2.082-7.823-6.245-7.823-2.252 0-3.913.866-4.982 2.596V7.38h-7.03v17.969h7.03zm21.152-9.839v9.839h-7.03V7.378h7.03V9.6c1.069-1.73 2.73-2.596 4.982-2.596 4.163 0 6.245 2.608 6.245 7.823v10.522h-7.03V15.51c0-2.027-.705-3.04-2.116-3.04-1.387 0-2.081 1.013-2.081 3.04zM89.316 33l11.398-25.621h-7.337l-3.48 9.19-3.106-9.19h-7.677l7.473 16.227L82.424 33h6.893zm24.394-8.762c-1.478.99-3.344 1.486-5.596 1.486-4.732 0-7.416-1.925-8.053-5.774l5.118-1.161c.319 1.457 1.297 2.186 2.935 2.186 1.115 0 1.672-.296 1.672-.888a.617.617 0 00-.222-.495c-.148-.126-.472-.28-.972-.462l-2.048-.751-.58-.205a13.12 13.12 0 01-.972-.359 21.304 21.304 0 01-1.041-.495 5.22 5.22 0 01-1.126-.735 11.77 11.77 0 01-.922-.922 3.503 3.503 0 01-.716-1.23 4.687 4.687 0 01-.239-1.52c0-1.754.694-3.177 2.082-4.27 1.387-1.093 3.128-1.64 5.221-1.64 3.503 0 5.869 1.526 7.097 4.578l-5.084 1.434c-.455-.956-1.149-1.434-2.082-1.434-.75 0-1.126.284-1.126.854 0 .205.091.376.273.512.182.137.489.274.922.41l1.979.82c3.685 1.275 5.585 3.188 5.698 5.74 0 1.89-.739 3.33-2.218 4.32zm11.393-16.86v17.97h-7.03V7.378h7.03zm10.642 18.346c2.388 0 4.094-.866 5.118-2.597v2.22h7.03V.65h-7.03v8.985c-1.024-1.754-2.73-2.63-5.118-2.63-2.412 0-4.419.882-6.023 2.647-1.604 1.765-2.406 4.002-2.406 6.712s.802 4.948 2.406 6.713c1.604 1.765 3.611 2.648 6.023 2.648zm-.495-6.491c.603.752 1.405 1.127 2.406 1.127 1 0 1.802-.375 2.405-1.127.603-.752.905-1.708.905-2.87 0-1.161-.302-2.118-.905-2.87-.603-.75-1.405-1.127-2.405-1.127-1.001 0-1.809.376-2.423 1.128-.592.751-.888 1.708-.888 2.87 0 1.16.302 2.117.905 2.869zm25.366 6.49c3.572 0 6.358-1.036 8.36-3.108l-2.9-3.894c-1.433 1.161-3.049 1.742-4.846 1.742-1.365 0-2.474-.308-3.327-.923-.853-.614-1.28-1.207-1.28-1.776h13.206c.114-.41.171-.945.171-1.606 0-2.824-.927-5.056-2.781-6.695-1.854-1.64-4.226-2.46-7.115-2.46-3.094 0-5.539.922-7.337 2.767-1.797 1.845-2.695 4.065-2.695 6.662 0 2.664.949 4.88 2.849 6.644 1.9 1.765 4.465 2.648 7.695 2.648zm-2.901-13.134c-.682.444-1.046 1.087-1.092 1.93h7.03c-.046-.82-.41-1.458-1.092-1.913-.682-.456-1.49-.684-2.423-.684s-1.74.222-2.423.666z"/></svg></svg>